# xmcd
#
# Track frame offsets:
#	150
#	13546
#	27043
#	43618
#	60914
#	74745
#	122628
#	138994
#	155462
#	183577
#	210636
#
# Disc length: 3385 seconds
#
# Revision: 1
# Processed by: cddbd v1.5.2PL0 Copyright (c) Steve Scherf et al.
# Submitted via: audiograbber 1.83.01
#
DISCID=930d370b
DTITLE=Gary Moore - Bad For You Baby 
DYEAR=2008
DGENRE=Blues Rock
TTITLE0=Bad For You Baby-fm4u
TTITLE1=Down The Line-fm4u
TTITLE2=Umbrella Man-fm4u
TTITLE3=Holding On-fm4u
TTITLE4=Walking Thru The Park-fm4u
TTITLE5=I Love You More Than You'll Ever Know-fm4u
TTITLE6=Mojo Boogie-fm4u
TTITLE7=Someday Baby-fm4u
TTITLE8=Did You Ever Feel Lonely?-fm4u
TTITLE9=Preacher Man Blues-fm4u
TTITLE10=Trouble Ain't Far Behind-fm4u
EXTD=
EXTT0=
EXTT1=
EXTT2=
EXTT3=
EXTT4=
EXTT5=
EXTT6=
EXTT7=
EXTT8=
EXTT9=
EXTT10=
PLAYORDER=
